<svg style="position: absolute; width: 0; height: 0; overflow: hidden;" version="1.1" xmlns="http://www.w3.org/2000/svg">
    <symbol id='check' viewBox="0 0 477.867 477.867">
        <g><g>
	<g>
		<path d="M238.933,0C106.974,0,0,106.974,0,238.933s106.974,238.933,238.933,238.933s238.933-106.974,238.933-238.933    C477.726,107.033,370.834,0.141,238.933,0z M238.933,443.733c-113.108,0-204.8-91.692-204.8-204.8s91.692-204.8,204.8-204.8    s204.8,91.692,204.8,204.8C443.611,351.991,351.991,443.611,238.933,443.733z" data-original="#000000" class="active-path" data-old_color="#000000" fill="#00AF80"/>
	</g>
</g><g>
	<g>
		<path d="M370.046,141.534c-6.614-6.388-17.099-6.388-23.712,0v0L187.733,300.134l-56.201-56.201    c-6.548-6.78-17.353-6.967-24.132-0.419c-6.78,6.548-6.967,17.353-0.419,24.132c0.137,0.142,0.277,0.282,0.419,0.419    l68.267,68.267c6.664,6.663,17.468,6.663,24.132,0l170.667-170.667C377.014,158.886,376.826,148.082,370.046,141.534z" data-original="#000000" class="active-path" data-old_color="#000000" fill="#00AF80"/>
	</g>
</g></g>   
    </symbol>
    <symbol id='send' viewBox="0 0 535.5 535.5">
        <g><g>
	<g id="send">
		<polygon points="0,497.25 535.5,267.75 0,38.25 0,216.75 382.5,267.75 0,318.75   " data-original="#000000" class="active-path" data-old_color="#000000" fill="#374957"/>
	</g>
    </g></g>  
    </symbol>
	<symbol id="search" viewBox="0 0 511.999 511.999">
		<g><g>
			<g>
				<path d="M508.874,478.708L360.142,329.976c28.21-34.827,45.191-79.103,45.191-127.309c0-111.75-90.917-202.667-202.667-202.667    S0,90.917,0,202.667s90.917,202.667,202.667,202.667c48.206,0,92.482-16.982,127.309-45.191l148.732,148.732    c4.167,4.165,10.919,4.165,15.086,0l15.081-15.082C513.04,489.627,513.04,482.873,508.874,478.708z M202.667,362.667    c-88.229,0-160-71.771-160-160s71.771-160,160-160s160,71.771,160,160S290.896,362.667,202.667,362.667z" data-original="#000000" class="active-path" data-old_color="#000000" fill="#A3A6A7"/>
			</g>
		</g></g>
	</symbol>
</svg>
